<?xml version="1.0" ?><!DOCTYPE svg  PUBLIC '-//W3C//DTD SVG 1.1//EN'  'http://www.w3.org/Graphics/SVG/1.1/DTD/svg11.dtd'><svg enable-background="new 0 0 512 512" id="Layer_1" version="1.1" viewBox="0 0 512 512" xml:space="preserve" xmlns="http://www.w3.org/2000/svg" xmlns:xlink="http://www.w3.org/1999/xlink"><g><path d="M254.8,507.8C117,507.8,5.9,395.3,6.5,255.2C7.1,117.2,118.6,4.7,258,6.2   c136.4,1.5,246.9,113.7,245.6,253.4C502.2,396.8,392.1,507.6,254.8,507.8z M254.9,488.2c124.2,0.4,227.7-100.6,229.1-228.5   C485.3,129.1,381,26.9,257.1,25.8c-125.7-1.1-230.3,100.8-231,229.1C25.5,384.5,127.7,488.2,254.9,488.2z" fill="#0494FE"/><path d="M233.9,250.3c21.3,9.4,27.1,26.9,25.9,45.9c-1.4,22-15.2,39.9-34.3,45.9c-8.8,2.8-18,3.7-27.1,3.8   c-25.7,0.2-51.3,0-77,0.1c-3.3,0-4.6-0.7-4.6-4.3c0.1-56.7,0.1-113.3,0.1-170c0-2.4-0.3-4.5,3.4-4.4c29.5,0.4,59-0.8,88.5,0.7   c11.6,0.6,22.7,3.9,31.6,12C261.5,199.2,258.5,233.1,233.9,250.3z M181.3,268c0-0.2,0-0.3,0-0.5c-6.8,0-13.7,0-20.5,0   c-2.3,0-3.8,0.3-3.7,3.2c0.1,13.8,0.1,27.6,0,41.5c0,1.7,0.4,2.9,2.4,2.9c15-0.4,30,1.2,44.9-0.9c13.1-1.8,19.3-11.2,18.6-26.8   c-0.5-10.8-8.3-18.5-20.3-19.3C195.6,267.6,188.4,268,181.3,268z M179.4,237.9c0-0.1,0-0.1,0-0.2c6.5,0,13,0,19.5,0   c1.6,0,3.3-0.4,4.9-0.7c10.5-1.9,15.8-8.4,15.8-19.2c0-10.9-4.8-16.1-15.9-18c-14.4-2.5-28.9-0.9-43.4-1.5   c-2.8-0.1-3.2,1.3-3.2,3.7c0.1,10.7,0.1,21.3,0,32c0,3,0.7,4.1,3.9,4C167.1,237.8,173.3,237.9,179.4,237.9z" fill="#0193FE"/><path d="M352,286c-13.7,0-27.3,0.1-41-0.1c-3.5,0-4.5,0.9-4.2,4.5c1.2,15.3,11.1,25.5,26.5,26.9   c11.6,1,21.6-1.4,27.8-12.4c1-1.8,2.4-1.9,4.2-1.9c8.8,0,17.7,0.2,26.5-0.1c3.5-0.1,4,1.2,3,4.1c-5.2,15.9-15.9,27.1-31.2,32.9   c-25.2,9.5-49,6.4-70.6-10.5c-8.8-6.9-13.8-16.1-16.6-26.6c-4.7-18.1-4.6-36.4,1.3-54.2c7.8-23.7,28.5-38.6,54-39.4   c17.7-0.5,34.2,3,47.3,16c11.1,11.1,16.4,24.9,17.8,40.2c0.5,5.5,0.2,11,0.6,16.5c0.2,3.4-1.2,4.1-4.3,4.1   C379.4,285.9,365.7,286,352,286z M335,236.9c-14.2,0.1-23.1,7.4-27,21.9c-1,3.8-0.6,5.2,3.9,5.1c15.3-0.3,30.6-0.1,45.9-0.1   c5.8,0,6.2-0.6,4.7-6.4C359.1,244.2,349.3,236.9,335,236.9z" fill="#0193FE"/><path d="M335,175c10.5,0,21,0.1,31.4-0.1c2.7,0,3.7,0.7,3.8,3.6c0.5,14.4,0.6,14.4-13.9,14.4   c-17.3,0-34.6-0.1-51.9,0.1c-3.4,0-4.9-0.8-4.5-4.4c0.5-4.4-1.9-10.1,1-12.9c2.7-2.5,8.2-0.7,12.5-0.7   C320.7,174.9,327.8,175,335,175z" fill="#0494FE"/></g></svg>